<?xml version="1.0" encoding="utf-8"?>
<!-- Generator: Adobe Illustrator 24.1.0, SVG Export Plug-In . SVG Version: 6.00 Build 0)  -->
<svg version="1.1" id="Capa_1" xmlns="http://www.w3.org/2000/svg" xmlns:xlink="http://www.w3.org/1999/xlink" x="0px" y="0px"
	 viewBox="0 0 96.2 134" style="enable-background:new 0 0 96.2 134;" xml:space="preserve">
<style type="text/css">
	.st0{fill:#0077BB;}
	.st1{display:none;fill:#0077BB;}
</style>
<desc>Created with sketchtool.</desc>
<g id="Desktop">
	<g id="Search---landing-page---v1" transform="translate(-83.000000, -266.000000)">
		<g id="Lynx-logo_white" transform="translate(83.000000, 265.974359)">
			<g id="logo_white">
				<path id="Shape" class="st0" d="M18.2,110.7C10.2,98,3.7,87.5,3.7,87.3c0-0.1,0.3,0.1,0.8,0.5c2.1,1.5,5.4,2.9,8.4,3.4
					c2.2,0.4,6.7,0.2,8.8-0.3c5.9-1.5,10.5-5.2,12.4-9.9c0.4-1.1,0.5-1.3,0.2-1.5c-0.1-0.1-4-10.2-8.6-22.5l-8.3-22.3l-5.4-17.1
					C9,8.3,6.5,0.5,6.5,0.4C6.4,0.2,6.6,0.3,6.8,0.6C7,0.9,12.4,7.1,18.7,14.5l11.5,13.4h16.6h16.6l11.4-13.3
					C81.1,7.3,86.5,1,86.8,0.7l0.5-0.6l-0.5,1.7C81,19.9,77.1,32.1,77,32.2C77,32.3,72.9,43,68,56l-8.9,23.7l0.5,1.3
					c1.5,3.8,5.1,7.2,9.5,9c2.9,1.1,4.2,1.4,8.1,1.4c3.1,0,3.7-0.1,5.1-0.4c1.9-0.5,4.2-1.4,5.5-2.2c0.5-0.3,0.9-0.5,0.9-0.4
					c0,0.1-6.4,10.4-14.2,22.9l-14.1,22.7l-0.1-20.3c0-11.2-0.1-20.3-0.1-20.3c0,0-3.2,2.2-6.9,4.9c-3.8,2.7-6.9,4.9-7,4.9
					s-3.1-2.1-6.8-4.7l-6.6-4.7l-0.1,20.2l-0.1,20.2L18.2,110.7z"/>
				<path id="Shape_1_" class="st1" d="M119.5,80.9L121,77l-4.1-9.3c-2.3-5.1-4.1-9.4-4.1-9.5c0-0.1,1.1-0.2,2.9-0.2h2.9l2.6,6
					c1.4,3.3,2.7,6,2.7,5.9c0.1-0.1,1.2-2.7,2.4-5.9c1.3-3.2,2.4-5.9,2.4-5.9c0-0.1,1.4-0.1,2.9,0l2.8,0.1l-2.9,7.3
					c-1.6,4-4.1,10-5.4,13.4l-2.4,6.1h-2.9H118L119.5,80.9z"/>
				<path id="Shape_2_" class="st0" d="M0,78.8c0-0.4,9.8-26.1,15-39.3l0.7-1.8v8.9c0,4.9,0.1,14.2,0.1,20.6l0.1,11.7H8
					C3.6,78.8,0,78.8,0,78.8z"/>
				<path id="Shape_3_" class="st0" d="M17.1,75.1c-0.1-3.4-0.3-37.9-0.2-37.8c0.1,0.1,15.6,41.4,15.6,41.5c0,0-3.5,0.1-7.6,0.1
					h-7.6L17.1,75.1z"/>
				<path id="Shape_4_" class="st0" d="M60.8,78.6c1-2.7,15.8-42,15.8-41.9c0,0,0,9.5-0.1,21.1l-0.1,21h-7.8
					C62.4,78.8,60.8,78.8,60.8,78.6z"/>
				<path id="Shape_5_" class="st0" d="M77.7,59.6c0-10.6,0.1-19.5,0.1-19.8c0-0.3,2.7,6.3,7.5,18.7C89.4,69,92.9,77.9,93,78.3
					l0.2,0.6h-7.8h-7.8L77.7,59.6z"/>
				<polygon id="Shape_6_" class="st1" points="94.9,65.1 94.9,51.8 97.7,51.8 100.4,51.8 100.4,62.2 100.5,72.6 104.7,72.7 
					108.8,72.7 108.8,75.5 108.8,78.3 101.9,78.3 94.9,78.3 				"/>
				<path id="Shape_7_" class="st1" d="M135.6,68.3v-10h2.6c2.5,0,2.6,0,2.6,0.4c0,0.5,0,0.5,1.4-0.1c1.4-0.6,3.9-0.8,5.5-0.4
					c3.3,0.7,5.8,3.2,7,6.8c0.3,0.9,0.3,1.9,0.4,7.2l0.1,6.1h-2.7h-2.6l-0.1-5.8l-0.1-5.8l-0.5-1.1c-0.4-0.8-0.8-1.3-1.3-1.7
					c-0.7-0.5-0.9-0.6-2.2-0.6c-2.1,0-3.6,0.9-4.5,2.9c-0.4,0.8-0.4,1.2-0.4,6.5l-0.1,5.6h-2.6h-2.6V68.3z"/>
				<path id="Shape_8_" class="st1" d="M158.5,78.2c0-0.1,6.8-9.7,7.3-10.4c0.1-0.1-1.2-2.1-3.2-4.9c-1.8-2.6-3.4-4.8-3.4-4.9
					c0-0.1,1.5-0.1,3.3-0.1h3.3l1.6,2.4c0.9,1.3,1.7,2.4,1.8,2.3c0.1,0,0.8-1,1.6-2.2c0.8-1.2,1.5-2.2,1.7-2.4
					c0.2-0.2,1-0.2,3.5-0.2l3.2,0.1l-3.3,4.6c-1.8,2.6-3.3,4.8-3.3,4.9c0,0.1,1.5,2.4,3.3,4.9c1.8,2.6,3.5,4.9,3.7,5.2l0.4,0.6h-3.3
					h-3.4l-2-3c-1.2-1.8-2-2.9-2.2-2.8c-0.1,0.1-1,1.4-2,2.9l-1.9,2.8l-3.3,0.1C160,78.3,158.5,78.3,158.5,78.2z"/>
			</g>
		</g>
	</g>
</g>
</svg>
